<?xml version="1.0" encoding="utf-8"?>
<!-- Generator: Adobe Illustrator 15.0.2, SVG Export Plug-In . SVG Version: 6.00 Build 0)  -->
<!DOCTYPE svg PUBLIC "-//W3C//DTD SVG 1.0//EN" "http://www.w3.org/TR/2001/REC-SVG-20010904/DTD/svg10.dtd">
<svg version="1.0" id="Layer_1" xmlns="http://www.w3.org/2000/svg" xmlns:xlink="http://www.w3.org/1999/xlink" x="0px" y="0px"
	 width="362px" height="99px" viewBox="0 0 362 99" enable-background="new 0 0 362 99" xml:space="preserve">
<g>
	<g>
		<path fill="#676767" d="M6.785,30.262H7.57V36H6.785V30.262z"/>
		<path fill="#676767" d="M9.267,30.262h2.293c0.779,0,1.383,0.28,1.812,0.84c0.383,0.505,0.574,1.152,0.574,1.941
			c0,0.609-0.113,1.16-0.339,1.652C13.209,35.565,12.524,36,11.553,36H9.267V30.262z M11.408,35.336
			c0.257,0,0.468-0.027,0.634-0.082c0.295-0.102,0.537-0.297,0.726-0.586c0.15-0.232,0.258-0.529,0.325-0.891
			c0.038-0.216,0.057-0.417,0.057-0.602c0-0.711-0.138-1.263-0.415-1.656s-0.721-0.59-1.335-0.59h-1.348v4.406H11.408z"/>
		<path fill="#676767" d="M15.483,30.262h4.164v0.703h-3.406v1.742h3.148v0.664h-3.148v1.945h3.465V36h-4.223V30.262z"/>
		<path fill="#676767" d="M22.82,30.262h0.877L25.78,36h-0.852l-0.599-1.719h-2.251L21.456,36h-0.797L22.82,30.262z M24.109,33.648
			l-0.883-2.535l-0.918,2.535H24.109z"/>
		<path fill="#676767" d="M30.463,30.262v0.684H28.53V36h-0.785v-5.055h-1.934v-0.684H30.463z"/>
		<path fill="#676767" d="M31.754,30.262h0.785V36h-0.785V30.262z"/>
		<path fill="#676767" d="M38.927,31.082c0.38,0.508,0.57,1.158,0.57,1.949c0,0.857-0.217,1.569-0.652,2.137
			c-0.51,0.667-1.238,1-2.184,1c-0.883,0-1.577-0.292-2.082-0.875c-0.451-0.562-0.676-1.273-0.676-2.133
			c0-0.776,0.193-1.44,0.578-1.992c0.495-0.708,1.227-1.062,2.195-1.062C37.69,30.105,38.44,30.431,38.927,31.082z M38.242,34.74
			c0.306-0.491,0.459-1.056,0.459-1.695c0-0.675-0.176-1.219-0.529-1.63s-0.835-0.618-1.447-0.618c-0.594,0-1.078,0.204-1.453,0.612
			s-0.562,1.009-0.562,1.804c0,0.636,0.161,1.172,0.482,1.609s0.843,0.655,1.564,0.655C37.44,35.477,37.936,35.231,38.242,34.74z"/>
		<path fill="#676767" d="M40.823,30.262h0.916l2.862,4.636v-4.636h0.742V36H44.47l-2.904-4.631V36h-0.742V30.262z"/>
	</g>
</g>
<g>
	<g>
		<path fill="#676767" d="M297.307,30.262h2.567c0.507,0,0.917,0.144,1.229,0.432s0.469,0.692,0.469,1.213
			c0,0.448-0.14,0.838-0.418,1.17c-0.279,0.332-0.705,0.498-1.279,0.498h-1.791V36h-0.777V30.262z M300.321,31.051
			c-0.171-0.081-0.405-0.121-0.702-0.121h-1.535v1.988h1.535c0.347,0,0.628-0.074,0.844-0.223s0.324-0.41,0.324-0.785
			C300.787,31.488,300.631,31.202,300.321,31.051z"/>
		<path fill="#676767" d="M303.062,30.262h2.608c0.43,0,0.783,0.064,1.062,0.191c0.529,0.245,0.794,0.697,0.794,1.355
			c0,0.344-0.071,0.625-0.213,0.844s-0.341,0.395-0.596,0.527c0.224,0.091,0.393,0.211,0.506,0.359s0.177,0.389,0.189,0.723
			l0.027,0.77c0.008,0.219,0.026,0.381,0.055,0.488c0.047,0.182,0.13,0.299,0.25,0.352V36h-0.953
			c-0.026-0.049-0.047-0.113-0.062-0.191s-0.028-0.229-0.039-0.453l-0.047-0.957c-0.018-0.375-0.153-0.626-0.406-0.754
			c-0.144-0.07-0.37-0.105-0.679-0.105h-1.72V36h-0.777V30.262z M305.586,32.891c0.355,0,0.635-0.073,0.842-0.219
			s0.31-0.409,0.31-0.789c0-0.409-0.145-0.688-0.433-0.836c-0.154-0.078-0.361-0.117-0.619-0.117h-1.847v1.961H305.586z"/>
		<path fill="#676767" d="M313.871,31.082c0.381,0.508,0.57,1.158,0.57,1.949c0,0.857-0.217,1.569-0.652,2.137
			c-0.51,0.667-1.238,1-2.184,1c-0.883,0-1.576-0.292-2.082-0.875c-0.45-0.562-0.676-1.273-0.676-2.133
			c0-0.776,0.193-1.44,0.578-1.992c0.495-0.708,1.227-1.062,2.195-1.062C312.635,30.105,313.385,30.431,313.871,31.082z
			 M313.186,34.74c0.307-0.491,0.459-1.056,0.459-1.695c0-0.675-0.176-1.219-0.529-1.63c-0.353-0.412-0.835-0.618-1.447-0.618
			c-0.594,0-1.078,0.204-1.453,0.612s-0.562,1.009-0.562,1.804c0,0.636,0.161,1.172,0.482,1.609
			c0.322,0.437,0.844,0.655,1.564,0.655C312.385,35.477,312.88,35.231,313.186,34.74z"/>
		<path fill="#676767" d="M315.803,30.262h2.294c0.778,0,1.383,0.28,1.812,0.84c0.383,0.505,0.574,1.152,0.574,1.941
			c0,0.609-0.113,1.16-0.339,1.652c-0.397,0.87-1.083,1.305-2.054,1.305h-2.287V30.262z M317.944,35.336
			c0.257,0,0.468-0.027,0.634-0.082c0.295-0.102,0.537-0.297,0.727-0.586c0.149-0.232,0.258-0.529,0.324-0.891
			c0.038-0.216,0.057-0.417,0.057-0.602c0-0.711-0.138-1.263-0.414-1.656s-0.721-0.59-1.335-0.59h-1.349v4.406H317.944z"/>
		<path fill="#676767" d="M322.785,30.262v3.547c0,0.417,0.078,0.763,0.236,1.039c0.233,0.417,0.627,0.625,1.182,0.625
			c0.664,0,1.115-0.225,1.354-0.676c0.129-0.245,0.193-0.574,0.193-0.988v-3.547h0.785v3.223c0,0.706-0.096,1.249-0.286,1.629
			c-0.351,0.693-1.011,1.039-1.983,1.039s-1.632-0.346-1.979-1.039c-0.19-0.38-0.286-0.923-0.286-1.629v-3.223H322.785z"/>
		<path fill="#676767" d="M332.182,30.68c0.396,0.383,0.615,0.818,0.66,1.305h-0.758c-0.085-0.37-0.253-0.663-0.505-0.879
			s-0.605-0.324-1.062-0.324c-0.555,0-1.002,0.199-1.344,0.596s-0.512,1.007-0.512,1.828c0,0.672,0.154,1.218,0.462,1.636
			s0.769,0.627,1.38,0.627c0.562,0,0.99-0.22,1.285-0.66c0.156-0.232,0.272-0.537,0.35-0.914h0.758
			c-0.067,0.604-0.289,1.111-0.664,1.52c-0.451,0.492-1.059,0.738-1.823,0.738c-0.659,0-1.212-0.202-1.66-0.606
			c-0.589-0.534-0.884-1.359-0.884-2.474c0-0.847,0.221-1.542,0.664-2.083c0.479-0.589,1.139-0.883,1.98-0.883
			C331.228,30.105,331.785,30.297,332.182,30.68z"/>
		<path fill="#676767" d="M338.472,30.262v0.684h-1.934V36h-0.785v-5.055h-1.934v-0.684H338.472z"/>
		<path fill="#676767" d="M339.762,30.262h0.785V36h-0.785V30.262z"/>
		<path fill="#676767" d="M346.936,31.082c0.381,0.508,0.57,1.158,0.57,1.949c0,0.857-0.217,1.569-0.652,2.137
			c-0.51,0.667-1.238,1-2.184,1c-0.883,0-1.576-0.292-2.082-0.875c-0.45-0.562-0.676-1.273-0.676-2.133
			c0-0.776,0.193-1.44,0.578-1.992c0.495-0.708,1.227-1.062,2.195-1.062C345.699,30.105,346.449,30.431,346.936,31.082z
			 M346.25,34.74c0.307-0.491,0.459-1.056,0.459-1.695c0-0.675-0.176-1.219-0.529-1.63c-0.353-0.412-0.835-0.618-1.447-0.618
			c-0.594,0-1.078,0.204-1.453,0.612s-0.562,1.009-0.562,1.804c0,0.636,0.161,1.172,0.482,1.609
			c0.322,0.437,0.844,0.655,1.564,0.655C345.449,35.477,345.944,35.231,346.25,34.74z"/>
		<path fill="#676767" d="M348.832,30.262h0.916l2.861,4.636v-4.636h0.742V36h-0.873l-2.904-4.631V36h-0.742V30.262z"/>
	</g>
</g>
<g>
	<path fill="#010101" d="M6,40.45l36.596-0.07l18.298-0.035c6.098-0.054,12.208,0.143,18.27-0.42
		c3.024-0.288,6.052-0.711,8.953-1.577c1.443-0.438,2.862-0.991,4.122-1.792c1.244-0.792,2.35-1.914,2.678-3.338
		c0.346-1.411-0.097-2.938-0.827-4.194c-0.367-0.611-0.937-1.09-1.613-1.098c-0.675-0.021-1.354,0.326-1.947,0.745
		c-1.194,0.87-2.168,2.052-3.052,3.267c-0.879,1.228-1.657,2.531-2.361,3.871c-1.392,2.685-2.542,5.522-3.192,8.467
		c-0.302,1.464-0.513,2.992-0.237,4.422c0.141,0.704,0.452,1.375,1,1.76c0.544,0.389,1.281,0.46,1.99,0.36
		c1.409-0.21,2.609-1.233,3.584-2.336c0.987-1.123,1.816-2.395,2.586-3.696c1.531-2.615,2.825-5.375,4.123-8.132
		c1.296-2.759,2.568-5.537,4.013-8.239c0.726-1.349,1.494-2.682,2.373-3.952c0.884-1.261,1.865-2.492,3.147-3.442
		c0.641-0.467,1.373-0.854,2.181-1.026c0.806-0.174,1.667-0.106,2.434,0.172c1.547,0.567,2.718,1.697,3.718,2.883
		c1.019,1.249,1.57,2.807,1.766,4.361c0.201,1.562,0.095,3.132-0.153,4.658c-0.511,3.059-1.552,5.975-2.745,8.796
		c-1.205,2.821-2.596,5.552-4.073,8.23c-2.95,5.359-6.301,10.48-9.543,15.632c-0.401,0.646-0.797,1.293-1.173,1.947
		c-0.356,0.637-0.774,1.353-0.919,1.933c-0.016,0.049,0.013,0.115-0.028,0.009c-0.097-0.146-0.228-0.116-0.167-0.119
		c0.086-0.018,0.253-0.092,0.4-0.175c0.304-0.171,0.611-0.385,0.913-0.603c0.604-0.439,1.193-0.915,1.778-1.396
		c2.327-1.942,4.612-3.978,6.837-6.038c2.207-2.08,4.352-4.244,6.177-6.635c0.889-1.196,1.75-2.466,2.181-3.821
		c0.209-0.658,0.248-1.4-0.102-1.739c-0.335-0.357-1.079-0.358-1.715-0.147c-1.304,0.42-2.462,1.484-2.899,2.774
		c-0.463,1.302-0.066,2.761,0.749,3.938c0.81,1.195,1.948,2.186,3.159,3.048c1.219,0.863,2.534,1.603,3.886,2.268
		c1.363,0.668,2.731,1.278,4.167,1.644c1.432,0.374,2.92,0.54,4.375,0.37c2.942-0.292,5.529-2.107,7.292-4.483
		c1.792-2.383,2.953-5.217,3.762-8.112c0.805-2.907,1.249-5.916,1.436-8.935c0.18-3.02,0.1-6.06-0.27-9.061
		c-0.377-2.996-1.022-5.979-2.179-8.751c-0.582-1.379-1.299-2.708-2.242-3.842c-0.934-1.128-2.145-2.053-3.546-2.353
		c-1.398-0.319-2.881,0.041-4.178,0.719c-1.312,0.668-2.45,1.658-3.081,2.961c-0.64,1.297-0.738,2.813-0.532,4.271
		c0.214,1.465,0.699,2.896,1.317,4.264c1.247,2.74,2.973,5.259,4.856,7.628c3.801,4.73,8.287,8.899,13.085,12.621
		c4.815,3.701,9.991,6.979,15.553,9.416c2.781,1.205,5.669,2.193,8.647,2.711c2.954,0.502,6.094,0.536,8.85-0.65
		c0.684-0.293,1.33-0.669,1.925-1.113c0.587-0.442,1.146-0.973,1.708-1.48c1.119-1.029,2.208-2.091,3.279-3.172
		c2.141-2.164,4.211-4.401,6.252-6.663c4.083-4.526,8.047-9.163,12.112-13.713c2.036-2.273,4.093-4.529,6.244-6.7
		c1.077-1.083,2.178-2.146,3.33-3.154c1.156-1.002,2.355-1.972,3.711-2.729c0.68-0.365,1.407-0.698,2.221-0.763
		c0.402-0.032,0.83,0.031,1.205,0.225c0.374,0.197,0.668,0.512,0.875,0.857c0.414,0.699,0.573,1.481,0.672,2.247
		c0.098,0.757,0.126,1.558-0.038,2.331c-0.312,1.551-1.229,2.897-2.322,3.977c-1.102,1.088-2.388,1.958-3.725,2.708
		c-2.688,1.489-5.598,2.507-8.54,3.327c-2.95,0.807-5.96,1.38-8.99,1.772c-6.057,0.747-12.24,0.905-18.281-0.185
		c-1.504-0.289-2.999-0.664-4.438-1.215c-1.432-0.551-2.836-1.271-3.977-2.35c-1.149-1.053-1.892-2.637-1.771-4.229
		c0.102-1.588,0.769-3.044,1.643-4.33c0.449-0.604,1.077-1.305,2.006-1.289c0.914,0.07,1.502,0.761,1.958,1.367
		c0.902,1.287,1.461,2.734,1.975,4.176c0.994,2.903,1.676,5.891,2.272,8.886c1.166,6,1.923,12.067,2.448,18.15
		c0.509,6.084,0.79,12.194,0.63,18.306c-0.095,3.054-0.28,6.115-0.814,9.144c-0.287,1.508-0.621,3.028-1.352,4.44
		c-0.373,0.677-0.887,1.423-1.778,1.673c-0.914,0.224-1.735-0.263-2.332-0.75c-2.398-2.126-3.552-5.069-5.153-7.621
		c-1.562-2.608-3.251-5.142-5-7.634c-3.505-4.979-7.244-9.795-11.053-14.554c-7.619-9.519-15.578-18.766-23.181-28.321
		c-3.769-4.8-7.543-9.622-10.651-14.934c-0.76-1.337-1.473-2.712-2.011-4.183c-0.26-0.738-0.486-1.5-0.576-2.31
		c-0.094-0.796-0.047-1.694,0.409-2.48c0.456-0.796,1.295-1.255,2.083-1.467c0.802-0.214,1.606-0.26,2.393-0.239
		c1.575,0.049,3.105,0.325,4.606,0.673c6.039,1.362,11.596,4.192,16.829,7.338c5.239,3.179,10.197,6.775,15.028,10.513
		c9.658,7.491,18.786,15.606,28.115,23.449c4.673,3.907,9.381,7.787,14.375,11.238c2.501,1.707,5.08,3.33,7.835,4.507
		c1.375,0.575,2.807,1.041,4.249,1.153c1.434,0.123,2.877-0.22,3.89-1.184c1.025-0.947,1.624-2.334,2-3.749
		c0.377-1.428,0.547-2.925,0.627-4.424c0.132-3.01,0.015-6.05-0.69-8.953c-0.694-2.87-2.106-5.677-4.55-7.289
		c-2.421-1.643-5.568-1.845-8.454-1.265c-2.917,0.58-5.693,1.85-8.217,3.462c-2.521,1.623-4.82,3.617-6.707,5.937
		c-1.854,2.306-3.396,5.032-3.569,7.938c-0.078,1.437,0.272,2.873,1.056,4.065c0.775,1.2,1.93,2.142,3.208,2.861
		c2.583,1.489,5.506,2.364,8.477,2.423c2.971,0.07,5.934-0.649,8.662-1.864c5.479-2.468,10.078-6.648,13.85-11.333
		c1.882-2.361,3.563-4.888,4.968-7.554c1.371-2.664,2.588-5.491,2.898-8.422c0.156-1.534,0.412-3.135,1.223-4.583
		c0.401-0.717,0.979-1.385,1.723-1.826c0.739-0.448,1.598-0.639,2.416-0.658c1.65-0.028,3.175,0.457,4.622,0.998
		c1.45,0.556,2.836,1.223,4.205,1.906c1.379,0.7,2.697,1.361,4.1,2.108c0.354,0.221,0.706,0.478,0.98,0.872
		c0.283,0.381,0.397,0.972,0.241,1.44c-0.319,0.93-1.007,1.441-1.635,1.916c-1.308,0.913-2.731,1.537-4.165,2.103
		c-1.439,0.557-2.906,1.022-4.387,1.43c-2.964,0.806-5.982,1.399-9.042,1.718c-1.529,0.155-3.07,0.242-4.619,0.188
		c-1.54-0.076-3.126-0.21-4.607-0.939c-0.719-0.357-1.45-1.023-1.613-1.935c-0.167-0.896,0.134-1.726,0.492-2.431
		c0.369-0.701,0.817-1.373,1.437-1.929c0.609-0.55,1.407-0.941,2.237-1.025c1.68-0.169,3.196,0.513,4.554,1.224
		c1.366,0.74,2.629,1.62,3.873,2.51c2.484,1.779,4.873,3.686,7.511,5.14c1.315,0.713,2.712,1.315,4.163,1.49
		c0.705,0.074,1.493,0.021,2.275,0.098l0.306,0.036c-0.102,0.04,0.672-0.018-0.042,0.179c0.207-0.191,0.248-0.165,0.36-0.23
		l0.28-0.116c0.369-0.142,0.735-0.259,1.103-0.374c1.47-0.451,2.948-0.832,4.429-1.207l1.111-0.276
		c0.367-0.088,0.676-0.21,1.012-0.377c0.653-0.328,1.266-0.769,1.873-1.219c1.211-0.909,2.423-1.872,3.773-2.638
		c1.343-0.773,2.819-1.344,4.356-1.609c1.535-0.272,3.109-0.249,4.639-0.021c0.766,0.113,1.521,0.28,2.266,0.482
		c0.373,0.1,0.742,0.212,1.108,0.332c0.353,0.113,0.779,0.248,1.109,0.562c0.159,0.157,0.235,0.236,0.382,0.301
		c0.143,0.064,0.316,0.11,0.493,0.146c0.355,0.073,0.73,0.116,1.105,0.153c0.751,0.072,1.51,0.113,2.27,0.149
		c1.52,0.069,3.043,0.107,4.565,0.14c12.192,0.232,24.394,0.221,36.592,0.243L354,40.45v0.1l-36.596,0.062
		c-12.199-0.015-24.396,0.131-36.6-0.002c-1.526-0.025-3.052-0.056-4.579-0.118c-0.764-0.032-1.528-0.07-2.295-0.14
		c-0.385-0.037-0.769-0.078-1.16-0.155c-0.196-0.041-0.395-0.088-0.602-0.179c-0.21-0.083-0.41-0.278-0.52-0.389
		c-0.229-0.219-0.554-0.331-0.921-0.445c-0.359-0.116-0.72-0.225-1.084-0.321c-0.728-0.195-1.464-0.356-2.207-0.464
		c-1.484-0.217-3-0.235-4.47,0.029c-1.472,0.258-2.881,0.806-4.178,1.556c-1.306,0.744-2.489,1.688-3.712,2.611
		c-0.615,0.458-1.244,0.916-1.954,1.275c-0.344,0.177-0.751,0.333-1.126,0.423l-1.105,0.285c-1.473,0.386-2.945,0.78-4.387,1.237
		c-0.359,0.115-0.719,0.234-1.061,0.369l-0.247,0.104c-0.058,0.018-0.198,0.117-0.132,0.057c-0.795,0.158-0.275,0.026-0.545,0.048
		l-0.263-0.029c-0.737-0.068-1.48-0.001-2.294-0.083c-1.59-0.19-3.048-0.826-4.405-1.556c-2.716-1.49-5.118-3.404-7.593-5.167
		c-1.236-0.88-2.484-1.745-3.804-2.454c-1.305-0.691-2.743-1.292-4.142-1.137c-1.418,0.143-2.464,1.278-3.123,2.582
		c-0.326,0.636-0.546,1.34-0.42,1.965c0.113,0.625,0.617,1.113,1.243,1.428c1.273,0.628,2.812,0.78,4.297,0.841
		c1.5,0.048,3.012-0.042,4.515-0.2c3.007-0.324,5.991-0.92,8.908-1.726c1.458-0.407,2.9-0.871,4.305-1.419
		c1.396-0.554,2.784-1.177,3.978-2.02c0.577-0.415,1.15-0.935,1.315-1.478c0.181-0.505-0.253-1.001-0.855-1.36
		c-1.293-0.677-2.708-1.373-4.054-2.042c-1.364-0.667-2.735-1.312-4.139-1.837c-1.396-0.514-2.854-0.943-4.27-0.902
		c-1.423,0.009-2.656,0.762-3.308,2.018c-0.677,1.236-0.948,2.717-1.093,4.201c-0.343,3.161-1.607,6.048-3.011,8.782
		c-1.439,2.73-3.153,5.303-5.074,7.71c-3.85,4.774-8.535,9.05-14.225,11.614c-2.833,1.26-5.941,2.02-9.082,1.943
		c-3.138-0.061-6.238-0.996-8.934-2.553c-1.369-0.771-2.656-1.808-3.544-3.18c-0.897-1.362-1.301-3.036-1.208-4.641
		c0.204-3.249,1.862-6.094,3.786-8.498c1.966-2.413,4.335-4.463,6.939-6.139c2.606-1.663,5.476-2.981,8.552-3.592
		c1.534-0.3,3.125-0.411,4.702-0.211c1.573,0.194,3.132,0.725,4.466,1.623c1.341,0.887,2.426,2.121,3.225,3.484
		c0.803,1.368,1.344,2.858,1.718,4.371c0.735,3.035,0.849,6.157,0.713,9.229c-0.084,1.543-0.257,3.094-0.659,4.618
		c-0.405,1.506-1.043,3.055-2.275,4.201c-1.225,1.173-3.015,1.575-4.597,1.428c-1.607-0.128-3.113-0.629-4.545-1.227
		c-2.859-1.226-5.469-2.876-8-4.602c-5.043-3.489-9.76-7.383-14.441-11.299c-9.34-7.858-18.456-15.968-28.078-23.438
		c-4.812-3.727-9.746-7.307-14.938-10.46c-5.191-3.122-10.664-5.905-16.56-7.258c-1.466-0.345-2.954-0.614-4.429-0.664
		c-0.735-0.023-1.469,0.023-2.144,0.202c-0.669,0.183-1.263,0.526-1.578,1.073c-0.32,0.543-0.387,1.251-0.303,1.957
		c0.076,0.708,0.281,1.421,0.525,2.119c0.506,1.396,1.196,2.744,1.938,4.058c3.042,5.236,6.795,10.068,10.54,14.865
		c7.561,9.559,15.495,18.833,23.094,28.385c3.799,4.776,7.531,9.611,11.033,14.619c1.748,2.506,3.437,5.055,5.001,7.685
		c0.796,1.305,1.5,2.679,2.265,3.974c0.782,1.281,1.627,2.569,2.741,3.518c0.549,0.456,1.227,0.811,1.846,0.647
		c0.622-0.16,1.096-0.769,1.436-1.4c0.682-1.303,1.024-2.801,1.306-4.278c0.533-2.98,0.725-6.026,0.825-9.064
		c0.172-6.084-0.096-12.181-0.59-18.251c-0.512-6.069-1.255-12.126-2.404-18.105c-0.588-2.984-1.262-5.961-2.239-8.833
		c-0.501-1.423-1.059-2.855-1.911-4.073c-0.424-0.583-0.981-1.166-1.645-1.203c-0.665-0.03-1.243,0.54-1.666,1.121
		c-0.833,1.216-1.485,2.644-1.576,4.115c-0.112,1.48,0.557,2.926,1.645,3.934c1.079,1.028,2.443,1.737,3.846,2.278
		c1.41,0.543,2.884,0.918,4.373,1.207c5.979,1.092,12.143,0.95,18.172,0.219c3.019-0.383,6.016-0.948,8.951-1.745
		c2.93-0.803,5.813-1.838,8.465-3.311c1.316-0.744,2.578-1.604,3.646-2.665c1.061-1.053,1.931-2.347,2.219-3.81
		c0.153-0.724,0.126-1.468,0.029-2.22c-0.095-0.739-0.259-1.487-0.629-2.105c-0.356-0.633-1.031-0.987-1.752-0.907
		c-0.717,0.057-1.416,0.37-2.069,0.725c-2.604,1.521-4.788,3.704-6.939,5.838c-2.138,2.168-4.186,4.425-6.212,6.701
		c-4.05,4.557-8.002,9.205-12.078,13.747c-2.038,2.271-4.106,4.518-6.25,6.696c-1.072,1.088-2.164,2.158-3.288,3.197
		c-0.568,0.515-1.115,1.04-1.744,1.518c-0.626,0.47-1.306,0.868-2.023,1.177c-2.895,1.252-6.13,1.212-9.144,0.71
		c-3.039-0.521-5.966-1.515-8.779-2.726c-5.626-2.448-10.843-5.734-15.702-9.447c-4.842-3.736-9.367-7.92-13.224-12.695
		c-1.911-2.395-3.67-4.943-4.961-7.758c-0.639-1.407-1.15-2.89-1.381-4.446c-0.222-1.545-0.132-3.211,0.584-4.673
		c0.7-1.465,1.99-2.576,3.382-3.285c1.383-0.729,3.046-1.154,4.655-0.793c1.61,0.343,2.954,1.385,3.953,2.587
		c1.012,1.212,1.759,2.599,2.365,4.023c1.201,2.862,1.862,5.898,2.253,8.944c0.383,3.051,0.473,6.134,0.296,9.202
		c-0.183,3.067-0.626,6.127-1.441,9.103c-0.822,2.964-2.001,5.885-3.878,8.397c-0.941,1.246-2.071,2.376-3.408,3.233
		c-1.331,0.86-2.868,1.415-4.446,1.596c-3.18,0.377-6.315-0.709-9.023-2.076c-1.384-0.678-2.738-1.434-4.012-2.331
		c-1.266-0.898-2.479-1.935-3.391-3.269c-0.451-0.665-0.815-1.415-0.994-2.232c-0.177-0.815-0.141-1.696,0.138-2.494
		c0.565-1.604,1.898-2.813,3.485-3.331c0.402-0.125,0.831-0.201,1.284-0.176c0.445,0.024,0.954,0.174,1.324,0.555
		c0.372,0.381,0.503,0.902,0.507,1.344c0.007,0.452-0.081,0.868-0.2,1.261c-0.507,1.561-1.409,2.848-2.329,4.089
		c-1.886,2.457-4.059,4.634-6.291,6.729c-2.255,2.077-4.532,4.095-6.891,6.057c-0.594,0.485-1.192,0.967-1.822,1.423
		c-0.317,0.228-0.637,0.451-0.998,0.653c-0.188,0.098-0.365,0.199-0.652,0.262c-0.119,0.027-0.479,0.048-0.676-0.275
		c-0.133-0.278-0.074-0.414-0.065-0.551c0.236-0.902,0.646-1.501,1.019-2.193c0.385-0.668,0.787-1.319,1.192-1.969
		c3.267-5.163,6.613-10.25,9.561-15.575c1.475-2.658,2.862-5.366,4.06-8.152c1.187-2.785,2.215-5.658,2.717-8.623
		c0.245-1.479,0.347-2.985,0.161-4.453c-0.18-1.462-0.69-2.889-1.605-4.016c-0.942-1.13-2.067-2.192-3.41-2.68
		c-1.345-0.521-2.837-0.128-3.998,0.754c-1.18,0.867-2.138,2.05-3.001,3.277c-0.86,1.237-1.622,2.549-2.343,3.883
		c-1.438,2.673-2.714,5.441-4.018,8.199c-1.307,2.756-2.611,5.524-4.169,8.172c-0.786,1.318-1.631,2.614-2.662,3.782
		c-1.022,1.138-2.287,2.264-3.95,2.519c-0.783,0.108-1.682,0.044-2.398-0.466c-0.715-0.511-1.069-1.338-1.223-2.113
		c-0.296-1.583-0.062-3.147,0.249-4.653c0.674-3.015,1.845-5.878,3.263-8.599c0.717-1.357,1.509-2.677,2.41-3.927
		c0.908-1.24,1.899-2.449,3.18-3.379c0.64-0.444,1.39-0.855,2.262-0.834c0.894,0.013,1.626,0.661,2.022,1.343
		c0.781,1.353,1.26,2.979,0.876,4.571c-0.375,1.598-1.598,2.805-2.896,3.627c-1.32,0.836-2.777,1.39-4.249,1.828
		c-2.956,0.861-6.006,1.267-9.048,1.538c-6.1,0.524-12.21,0.293-18.305,0.329L42.596,40.62L6,40.55V40.45z"/>
</g>
</svg>
