<?xml version="1.0" encoding="utf-8"?>
<!-- Generator: Adobe Illustrator 15.0.2, SVG Export Plug-In . SVG Version: 6.00 Build 0)  -->
<!DOCTYPE svg PUBLIC "-//W3C//DTD SVG 1.1//EN" "http://www.w3.org/Graphics/SVG/1.1/DTD/svg11.dtd">
<svg version="1.1" id="Layer_1" xmlns="http://www.w3.org/2000/svg" xmlns:xlink="http://www.w3.org/1999/xlink" x="0px" y="0px"
	 width="100%" height="100%" viewBox="0 0 400 400" enable-background="new 0 0 400 400" xml:space="preserve">
<g>
	<g>
		<g>
			<path fill="#00A88F" d="M200,200.001l-99.999,172.521C36.293,335.885,0,273.277,0,200.001H200z"/>
			<path fill="#007B38" d="M200,200.001l100,172.521c-63.709,36.637-136.292,36.637-199.999,0L200,200.001z"/>
			<path fill="#DF0000" d="M200,200.001h200c0,73.276-36.295,135.884-100,172.521L200,200.001z"/>
			<path fill="#E20177" d="M200,200.001L300,27.478c63.705,36.636,100,99.249,100,172.523H200z"/>
			<path fill="#0089EE" d="M200,200.001L100.001,27.478c63.708-36.637,136.29-36.637,199.999,0L200,200.001z"/>
			<path fill="#00AEEF" d="M200,200.001H0C0,126.727,36.293,64.114,100.001,27.478L200,200.001z"/>
		</g>
		<path fill="#FC02B6" d="M200,200.001l45.266-78.096c28.839,16.584,45.266,44.926,45.266,78.096H200z"/>
		<path fill="#00C8FE" d="M200,200.001l-45.269-78.096c28.841-16.588,61.697-16.588,90.535,0L200,200.001z"/>
		<path fill="#00E5FE" d="M200,200.001h-90.532c0-33.17,16.428-61.512,45.263-78.096L200,200.001z"/>
		<path fill="#00E1CE" d="M200,200.001l-45.269,78.095c-28.835-16.581-45.263-44.926-45.263-78.095H200z"/>
		<path fill="#00BB64" d="M200,200.001l45.266,78.095c-28.838,16.585-61.694,16.585-90.535,0L200,200.001z"/>
		<path fill="#FB0000" d="M200,200.001h90.532c0,33.169-16.427,61.514-45.266,78.095L200,200.001z"/>
	</g>
</g>
</svg>