<?xml version="1.0" encoding="utf-8"?>
<!-- Generator: Adobe Illustrator 15.0.2, SVG Export Plug-In  -->
<!DOCTYPE svg PUBLIC "-//W3C//DTD SVG 1.0//EN" "http://www.w3.org/TR/2001/REC-SVG-20010904/DTD/svg10.dtd" [
	<!ENTITY ns_flows "http://ns.adobe.com/Flows/1.0/">
]>
<svg version="1.0"
	 xmlns="http://www.w3.org/2000/svg" xmlns:xlink="http://www.w3.org/1999/xlink" xmlns:a="http://ns.adobe.com/AdobeSVGViewerExtensions/3.0/"
	 x="0px" y="0px" width="320px" height="100px" viewBox="-1.601 -10.661 320 100"
	 overflow="visible" enable-background="new -1.601 -10.661 320 100" xml:space="preserve">
<defs>
</defs>
<g>
	<g>
		<path fill="#676767" d="M1.185,20.101H1.97v5.738H1.185V20.101z"/>
		<path fill="#676767" d="M3.667,20.101H5.96c0.779,0,1.383,0.28,1.812,0.84c0.383,0.505,0.574,1.152,0.574,1.941
			c0,0.609-0.113,1.16-0.339,1.652c-0.398,0.87-1.083,1.305-2.054,1.305H3.667V20.101z M5.808,25.175
			c0.257,0,0.468-0.027,0.634-0.082c0.295-0.102,0.537-0.297,0.726-0.586c0.15-0.232,0.258-0.529,0.325-0.891
			C7.53,23.4,7.549,23.2,7.549,23.015c0-0.711-0.138-1.263-0.415-1.656s-0.721-0.59-1.335-0.59H4.452v4.406H5.808z"/>
		<path fill="#676767" d="M9.883,20.101h4.164v0.703h-3.406v1.742h3.148v0.664h-3.148v1.945h3.465v0.684H9.883V20.101z"/>
		<path fill="#676767" d="M17.22,20.101h0.877l2.083,5.738h-0.852l-0.599-1.719h-2.251l-0.622,1.719h-0.797L17.22,20.101z
			 M18.508,23.487l-0.883-2.535l-0.918,2.535H18.508z"/>
		<path fill="#676767" d="M24.863,20.101v0.684h-1.934v5.055h-0.785v-5.055H20.21v-0.684H24.863z"/>
		<path fill="#676767" d="M26.153,20.101h0.785v5.738h-0.785V20.101z"/>
		<path fill="#676767" d="M33.327,20.921c0.38,0.508,0.57,1.158,0.57,1.949c0,0.857-0.217,1.569-0.652,2.137
			c-0.51,0.667-1.238,1-2.184,1c-0.883,0-1.577-0.292-2.082-0.875c-0.451-0.562-0.676-1.273-0.676-2.133
			c0-0.776,0.193-1.44,0.578-1.992c0.495-0.708,1.227-1.062,2.195-1.062C32.09,19.944,32.84,20.27,33.327,20.921z M32.641,24.579
			c0.306-0.491,0.459-1.056,0.459-1.695c0-0.675-0.176-1.219-0.529-1.63s-0.835-0.618-1.447-0.618c-0.594,0-1.078,0.204-1.453,0.612
			s-0.562,1.009-0.562,1.804c0,0.636,0.161,1.172,0.482,1.609s0.843,0.655,1.564,0.655C31.84,25.315,32.335,25.07,32.641,24.579z"/>
		<path fill="#676767" d="M35.223,20.101h0.916L39,24.737v-4.636h0.742v5.738h-0.873l-2.904-4.631v4.631h-0.742V20.101z"/>
	</g>
</g>
<g>
	<g>
		<path fill="#676767" d="M257.706,20.101h2.568c0.507,0,0.917,0.144,1.229,0.432s0.468,0.692,0.468,1.213
			c0,0.448-0.139,0.838-0.418,1.17c-0.278,0.332-0.705,0.498-1.278,0.498h-1.792v2.426h-0.777V20.101z M260.721,20.89
			c-0.171-0.081-0.405-0.121-0.702-0.121h-1.536v1.988h1.536c0.347,0,0.628-0.074,0.844-0.223s0.324-0.41,0.324-0.785
			C261.186,21.327,261.031,21.041,260.721,20.89z"/>
		<path fill="#676767" d="M263.461,20.101h2.608c0.43,0,0.784,0.064,1.062,0.191c0.529,0.245,0.794,0.697,0.794,1.355
			c0,0.344-0.071,0.625-0.213,0.844s-0.34,0.395-0.596,0.527c0.224,0.091,0.393,0.211,0.506,0.359s0.176,0.389,0.189,0.723
			l0.027,0.77c0.008,0.219,0.026,0.381,0.055,0.488c0.047,0.182,0.13,0.299,0.25,0.352v0.129h-0.953
			c-0.026-0.049-0.047-0.113-0.062-0.191s-0.029-0.229-0.039-0.453l-0.047-0.957c-0.018-0.375-0.153-0.626-0.406-0.754
			c-0.144-0.07-0.371-0.105-0.679-0.105h-1.719v2.461h-0.777V20.101z M265.986,22.729c0.354,0,0.635-0.073,0.841-0.219
			s0.31-0.409,0.31-0.789c0-0.409-0.145-0.688-0.433-0.836c-0.154-0.078-0.361-0.117-0.619-0.117h-1.846v1.961H265.986z"/>
		<path fill="#676767" d="M274.271,20.921c0.38,0.508,0.57,1.158,0.57,1.949c0,0.857-0.217,1.569-0.652,2.137
			c-0.51,0.667-1.238,1-2.184,1c-0.883,0-1.577-0.292-2.082-0.875c-0.451-0.562-0.676-1.273-0.676-2.133
			c0-0.776,0.193-1.44,0.578-1.992c0.495-0.708,1.227-1.062,2.195-1.062C273.034,19.944,273.784,20.27,274.271,20.921z
			 M273.585,24.579c0.306-0.491,0.459-1.056,0.459-1.695c0-0.675-0.176-1.219-0.529-1.63s-0.835-0.618-1.447-0.618
			c-0.594,0-1.078,0.204-1.453,0.612s-0.562,1.009-0.562,1.804c0,0.636,0.161,1.172,0.482,1.609s0.843,0.655,1.564,0.655
			C272.784,25.315,273.279,25.07,273.585,24.579z"/>
		<path fill="#676767" d="M276.203,20.101h2.293c0.779,0,1.383,0.28,1.812,0.84c0.383,0.505,0.574,1.152,0.574,1.941
			c0,0.609-0.113,1.16-0.339,1.652c-0.398,0.87-1.083,1.305-2.054,1.305h-2.286V20.101z M278.344,25.175
			c0.257,0,0.468-0.027,0.634-0.082c0.295-0.102,0.537-0.297,0.726-0.586c0.15-0.232,0.258-0.529,0.325-0.891
			c0.038-0.216,0.057-0.417,0.057-0.602c0-0.711-0.138-1.263-0.415-1.656s-0.721-0.59-1.335-0.59h-1.348v4.406H278.344z"/>
		<path fill="#676767" d="M283.185,20.101v3.547c0,0.417,0.079,0.763,0.236,1.039c0.233,0.417,0.627,0.625,1.181,0.625
			c0.664,0,1.116-0.225,1.354-0.676c0.128-0.245,0.193-0.574,0.193-0.988v-3.547h0.785v3.223c0,0.706-0.095,1.249-0.286,1.629
			c-0.35,0.693-1.011,1.039-1.983,1.039s-1.632-0.346-1.979-1.039c-0.191-0.38-0.286-0.923-0.286-1.629v-3.223H283.185z"/>
		<path fill="#676767" d="M292.581,20.519c0.396,0.383,0.616,0.818,0.66,1.305h-0.758c-0.084-0.37-0.252-0.663-0.504-0.879
			s-0.605-0.324-1.061-0.324c-0.555,0-1.003,0.199-1.344,0.596s-0.512,1.007-0.512,1.828c0,0.672,0.154,1.218,0.462,1.636
			s0.768,0.627,1.379,0.627c0.563,0,0.991-0.22,1.286-0.66c0.156-0.232,0.272-0.537,0.349-0.914h0.758
			c-0.067,0.604-0.288,1.111-0.664,1.52c-0.451,0.492-1.058,0.738-1.823,0.738c-0.659,0-1.212-0.202-1.66-0.606
			c-0.589-0.534-0.884-1.359-0.884-2.474c0-0.847,0.221-1.542,0.664-2.083c0.479-0.589,1.139-0.883,1.98-0.883
			C291.627,19.944,292.184,20.136,292.581,20.519z"/>
		<path fill="#676767" d="M298.871,20.101v0.684h-1.934v5.055h-0.785v-5.055h-1.934v-0.684H298.871z"/>
		<path fill="#676767" d="M300.162,20.101h0.785v5.738h-0.785V20.101z"/>
		<path fill="#676767" d="M307.335,20.921c0.38,0.508,0.57,1.158,0.57,1.949c0,0.857-0.217,1.569-0.652,2.137
			c-0.51,0.667-1.238,1-2.184,1c-0.883,0-1.577-0.292-2.082-0.875c-0.451-0.562-0.676-1.273-0.676-2.133
			c0-0.776,0.193-1.44,0.578-1.992c0.495-0.708,1.227-1.062,2.195-1.062C306.099,19.944,306.849,20.27,307.335,20.921z
			 M306.65,24.579c0.306-0.491,0.459-1.056,0.459-1.695c0-0.675-0.176-1.219-0.529-1.63s-0.835-0.618-1.447-0.618
			c-0.594,0-1.078,0.204-1.453,0.612s-0.562,1.009-0.562,1.804c0,0.636,0.161,1.172,0.482,1.609s0.843,0.655,1.564,0.655
			C305.849,25.315,306.344,25.07,306.65,24.579z"/>
		<path fill="#676767" d="M309.231,20.101h0.916l2.862,4.636v-4.636h0.742v5.738h-0.873l-2.904-4.631v4.631h-0.742V20.101z"/>
	</g>
</g>
<g>
	<path fill="#010101" d="M0,31.125l33.104-0.056l16.552-0.028c5.515-0.047,11.042,0.132,16.532-0.375
		c2.738-0.26,5.479-0.642,8.111-1.426c1.31-0.397,2.598-0.898,3.744-1.63c1.131-0.722,2.144-1.75,2.444-3.06
		c0.314-1.298-0.092-2.688-0.76-3.833c-0.336-0.56-0.868-1.008-1.501-1.014c-0.629-0.018-1.249,0.303-1.789,0.685
		c-1.086,0.793-1.966,1.867-2.766,2.969c-0.795,1.113-1.498,2.294-2.133,3.508c-1.257,2.433-2.294,5.003-2.878,7.67
		c-0.271,1.326-0.46,2.71-0.208,4.007c0.128,0.638,0.413,1.248,0.911,1.598c0.496,0.354,1.165,0.417,1.807,0.324
		c1.277-0.193,2.361-1.121,3.242-2.119c0.892-1.017,1.64-2.169,2.334-3.347c1.381-2.367,2.547-4.866,3.718-7.361
		c1.168-2.497,2.315-5.012,3.62-7.46c0.655-1.222,1.348-2.429,2.143-3.581c0.8-1.143,1.687-2.262,2.852-3.127
		c0.582-0.426,1.249-0.78,1.988-0.938c0.737-0.16,1.527-0.1,2.228,0.154c1.415,0.517,2.479,1.543,3.39,2.62
		c0.931,1.138,1.438,2.558,1.614,3.973c0.183,1.421,0.085,2.846-0.14,4.23c-0.464,2.774-1.408,5.415-2.489,7.969
		c-1.092,2.554-2.352,5.026-3.689,7.449c-2.67,4.85-5.705,9.482-8.638,14.141c-0.362,0.583-0.721,1.169-1.061,1.759
		c-0.321,0.573-0.7,1.227-0.826,1.733c-0.015,0.038,0.016,0.095-0.031-0.023c-0.103-0.161-0.254-0.133-0.202-0.133
		c0.066-0.013,0.216-0.078,0.346-0.152c0.272-0.152,0.549-0.345,0.821-0.541c0.545-0.396,1.078-0.827,1.607-1.261
		c2.103-1.755,4.171-3.596,6.184-5.458c1.996-1.88,3.936-3.836,5.585-5.995c0.803-1.08,1.58-2.228,1.966-3.443
		c0.19-0.591,0.217-1.249-0.08-1.532c-0.28-0.304-0.939-0.313-1.509-0.124c-1.167,0.375-2.207,1.33-2.598,2.482
		c-0.416,1.164-0.059,2.468,0.676,3.525c0.729,1.073,1.757,1.964,2.851,2.739c1.101,0.775,2.29,1.441,3.512,2.039
		c1.234,0.602,2.467,1.148,3.76,1.475c1.29,0.334,2.626,0.48,3.93,0.325c2.636-0.268,4.947-1.896,6.528-4.034
		c1.605-2.145,2.646-4.699,3.37-7.31c0.72-2.622,1.114-5.336,1.278-8.059c0.157-2.725,0.078-5.466-0.261-8.17
		c-0.345-2.699-0.934-5.385-1.976-7.87c-0.524-1.235-1.169-2.423-2.009-3.428c-0.832-1-1.896-1.804-3.11-2.061
		c-1.211-0.274-2.503,0.039-3.65,0.641c-1.164,0.596-2.147,1.461-2.694,2.594c-0.554,1.127-0.639,2.454-0.455,3.744
		c0.192,1.297,0.627,2.574,1.183,3.796c1.122,2.451,2.678,4.714,4.377,6.843c3.431,4.251,7.484,8.003,11.817,11.349
		c4.348,3.327,9.021,6.27,14.025,8.449c2.501,1.078,5.096,1.958,7.753,2.413c2.638,0.444,5.417,0.457,7.811-0.582
		c1.214-0.498,2.166-1.333,3.183-2.289c1.005-0.928,1.984-1.887,2.948-2.864c1.926-1.955,3.791-3.979,5.63-6.027
		c3.68-4.098,7.255-8.299,10.928-12.429c1.839-2.063,3.699-4.112,5.65-6.09c1.977-1.952,3.939-3.938,6.461-5.416
		c0.646-0.345,1.339-0.677,2.197-0.751c0.424-0.035,0.909,0.029,1.339,0.252c0.43,0.224,0.759,0.581,0.978,0.944
		c0.436,0.737,0.581,1.492,0.679,2.218c0.043,0.347,0.076,0.753,0.079,1.093c0,0.416-0.042,0.787-0.115,1.169
		c-0.304,1.529-1.196,2.828-2.225,3.85c-1.04,1.031-2.235,1.84-3.47,2.538c-2.483,1.38-5.143,2.322-7.833,3.069
		c-2.696,0.737-5.44,1.259-8.203,1.616c-5.522,0.679-11.149,0.827-16.697-0.173c-1.383-0.266-2.761-0.611-4.101-1.125
		c-1.334-0.514-2.658-1.185-3.768-2.234c-1.119-1.015-1.884-2.633-1.758-4.219c0.109-1.587,0.737-2.939,1.582-4.188
		c0.228-0.312,0.491-0.623,0.846-0.896c0.346-0.267,0.845-0.508,1.4-0.48c0.554,0.023,1.008,0.283,1.34,0.552
		c0.338,0.276,0.593,0.583,0.821,0.893c0.875,1.252,1.38,2.581,1.855,3.91c0.913,2.667,1.531,5.382,2.073,8.106
		c1.06,5.453,1.745,10.955,2.221,16.473c0.461,5.52,0.715,11.06,0.57,16.617c-0.086,2.778-0.254,5.562-0.745,8.347
		c-0.267,1.391-0.565,2.788-1.275,4.165c-0.369,0.652-0.871,1.454-1.924,1.762c-0.516,0.135-1.057,0.052-1.475-0.119
		c-0.424-0.171-0.771-0.407-1.076-0.657c-2.314-2.072-3.321-4.753-4.758-7.035c-1.399-2.349-2.916-4.636-4.488-6.887
		c-3.15-4.5-6.518-8.859-9.949-13.167c-6.865-8.621-14.044-17.001-20.908-25.67c-3.402-4.356-6.81-8.729-9.629-13.571
		c-0.69-1.221-1.338-2.476-1.832-3.834c-0.239-0.683-0.447-1.39-0.532-2.156c-0.086-0.751-0.047-1.627,0.411-2.417
		c0.461-0.802,1.301-1.252,2.052-1.452c0.767-0.203,1.517-0.241,2.245-0.221c1.457,0.049,2.852,0.306,4.219,0.625
		c5.498,1.259,10.542,3.836,15.284,6.693c4.748,2.887,9.234,6.15,13.605,9.54c8.736,6.792,16.986,14.145,25.415,21.246
		c4.222,3.538,8.474,7.05,12.979,10.171c2.257,1.542,4.583,3.008,7.056,4.071c1.234,0.517,2.518,0.937,3.797,1.037
		c1.272,0.104,2.53-0.187,3.415-1.03c0.896-0.829,1.438-2.056,1.774-3.325c0.339-1.278,0.493-2.624,0.568-3.974
		c0.124-2.714,0.02-5.453-0.611-8.063c-0.622-2.582-1.885-5.091-4.062-6.53c-2.156-1.468-4.973-1.656-7.568-1.137
		c-2.623,0.518-5.127,1.659-7.403,3.11c-2.275,1.46-4.351,3.256-6.053,5.345c-1.675,2.075-3.063,4.53-3.22,7.133
		c-0.072,1.288,0.24,2.57,0.939,3.638c0.692,1.074,1.727,1.921,2.876,2.57c2.328,1.346,4.961,2.137,7.639,2.193
		c2.679,0.066,5.352-0.579,7.818-1.673c4.95-2.222,9.112-5.996,12.527-10.228c1.704-2.132,3.227-4.416,4.5-6.825
		c1.243-2.408,2.346-4.963,2.63-7.613c0.144-1.388,0.385-2.833,1.112-4.145c0.362-0.649,0.884-1.254,1.556-1.654
		c0.668-0.406,1.446-0.581,2.186-0.598c1.495-0.028,2.875,0.409,4.186,0.896c1.312,0.501,2.568,1.103,3.808,1.719
		c1.249,0.632,2.44,1.226,3.712,1.902c0.322,0.201,0.643,0.435,0.895,0.796c0.261,0.349,0.366,0.894,0.222,1.324
		c-0.293,0.854-0.918,1.316-1.488,1.748c-1.186,0.829-2.474,1.395-3.772,1.908c-1.303,0.505-2.63,0.927-3.97,1.297
		c-2.682,0.732-5.414,1.27-8.184,1.561c-1.385,0.142-2.78,0.221-4.184,0.172c-1.396-0.069-2.834-0.186-4.186-0.853
		c-0.655-0.326-1.329-0.94-1.479-1.78c-0.152-0.824,0.125-1.582,0.452-2.222c0.337-0.636,0.744-1.246,1.309-1.754
		c0.556-0.5,1.285-0.857,2.043-0.934c1.533-0.153,2.907,0.469,4.136,1.114c1.238,0.671,2.38,1.469,3.505,2.275
		c2.246,1.612,4.405,3.338,6.788,4.654c1.188,0.646,2.449,1.19,3.759,1.349c0.635,0.066,1.349,0.022,2.057,0.093l0.277,0.034
		c-0.096,0.035,0.618-0.013-0.043,0.162c0.187-0.17,0.226-0.148,0.327-0.206l0.254-0.104c0.334-0.127,0.666-0.232,0.999-0.335
		c1.331-0.403,2.669-0.744,4.01-1.079c0.679-0.181,1.351-0.277,1.924-0.587c0.593-0.297,1.148-0.696,1.699-1.103
		c1.097-0.822,2.193-1.691,3.413-2.382c1.213-0.697,2.547-1.211,3.934-1.449c1.386-0.245,2.807-0.222,4.188-0.015
		c0.691,0.104,1.374,0.254,2.045,0.438c0.336,0.09,0.669,0.192,1,0.3c0.32,0.103,0.699,0.225,0.99,0.503
		c0.141,0.139,0.218,0.219,0.355,0.278c0.133,0.061,0.292,0.103,0.453,0.136c0.325,0.067,0.665,0.107,1.004,0.141
		c0.681,0.066,1.368,0.105,2.055,0.139c1.375,0.065,2.753,0.103,4.132,0.135c11.029,0.216,22.066,0.196,33.101,0.218l33.104,0.052
		l-33.104,0.052c-11.035-0.012-22.068,0.11-33.106-0.003c-1.38-0.02-2.76-0.045-4.141-0.099c-0.691-0.028-1.382-0.061-2.075-0.122
		c-0.347-0.032-0.694-0.069-1.045-0.138c-0.176-0.036-0.354-0.078-0.537-0.158c-0.186-0.073-0.359-0.242-0.462-0.345
		c-0.214-0.204-0.515-0.306-0.846-0.409c-0.325-0.105-0.652-0.203-0.982-0.29c-0.659-0.177-1.327-0.321-2-0.419
		c-1.346-0.196-2.719-0.21-4.052,0.03c-1.333,0.235-2.611,0.733-3.786,1.414c-1.182,0.675-2.252,1.53-3.357,2.366
		c-0.556,0.414-1.124,0.829-1.764,1.153c-0.311,0.16-0.676,0.301-1.015,0.383l-1,0.261c-1.33,0.354-2.661,0.715-3.965,1.132
		c-0.324,0.105-0.649,0.214-0.957,0.337l-0.223,0.095c-0.053,0.017-0.178,0.105-0.119,0.053c-0.734,0.143-0.25,0.025-0.498,0.045
		l-0.237-0.025c-0.667-0.06-1.337,0.004-2.076-0.071c-1.441-0.17-2.763-0.746-3.992-1.406c-2.46-1.347-4.635-3.077-6.874-4.669
		c-1.119-0.795-2.249-1.576-3.44-2.215c-1.179-0.623-2.477-1.162-3.729-1.021c-1.268,0.129-2.203,1.143-2.797,2.319
		c-0.293,0.573-0.487,1.203-0.374,1.753c0.101,0.55,0.544,0.981,1.105,1.263c1.141,0.56,2.529,0.702,3.869,0.756
		c1.354,0.044,2.72-0.036,4.078-0.177c2.718-0.292,5.416-0.829,8.054-1.555c1.318-0.367,2.622-0.785,3.891-1.28
		c1.262-0.5,2.517-1.062,3.594-1.821c0.521-0.373,1.036-0.843,1.181-1.322c0.159-0.44-0.218-0.878-0.762-1.203
		c-1.166-0.611-2.446-1.245-3.662-1.852c-1.233-0.605-2.472-1.19-3.74-1.667c-1.262-0.467-2.579-0.856-3.858-0.822
		c-1.286,0.006-2.402,0.685-2.994,1.82c-0.617,1.117-0.854,2.46-0.982,3.801c-0.307,2.861-1.449,5.475-2.716,7.95
		c-1.3,2.472-2.849,4.802-4.584,6.982c-3.48,4.325-7.716,8.201-12.868,10.53c-2.566,1.145-5.385,1.837-8.234,1.772
		c-2.847-0.052-5.663-0.898-8.111-2.308c-1.244-0.7-2.419-1.642-3.231-2.894c-0.821-1.243-1.191-2.773-1.108-4.238
		c0.184-2.964,1.689-5.55,3.434-7.735c1.781-2.192,3.929-4.054,6.291-5.578c2.364-1.512,4.967-2.712,7.765-3.272
		c2.756-0.558,5.894-0.39,8.373,1.283c1.229,0.811,2.224,1.94,2.955,3.185c0.735,1.248,1.229,2.606,1.572,3.982
		c0.672,2.762,0.777,5.597,0.657,8.384c-0.076,1.402-0.231,2.812-0.596,4.205c-0.368,1.376-0.953,2.798-2.093,3.867
		c-1.137,1.096-2.809,1.462-4.262,1.333c-1.479-0.116-2.853-0.575-4.158-1.116c-2.604-1.115-4.972-2.607-7.268-4.169
		c-4.575-3.158-8.848-6.676-13.088-10.215c-8.46-7.101-16.712-14.427-25.417-21.167c-4.353-3.363-8.813-6.593-13.502-9.432
		c-4.688-2.814-9.621-5.312-14.918-6.511c-1.316-0.307-2.651-0.543-3.954-0.583c-1.273-0.047-2.65,0.185-3.117,1.026
		c-0.499,0.851-0.196,2.246,0.234,3.447c0.452,1.236,1.072,2.442,1.742,3.62c2.745,4.699,6.147,9.06,9.54,13.384
		c6.854,8.622,14.052,16.994,20.952,25.625c3.45,4.316,6.841,8.687,10.029,13.222c1.591,2.27,3.13,4.58,4.559,6.969
		c0.726,1.184,1.38,2.45,2.057,3.588c0.692,1.134,1.46,2.276,2.376,3.047c0.455,0.385,0.938,0.58,1.229,0.487
		c0.314-0.065,0.705-0.489,0.982-1.021c0.567-1.08,0.882-2.413,1.128-3.723c0.474-2.651,0.648-5.391,0.737-8.124
		c0.154-5.476-0.087-10.977-0.535-16.453c-0.462-5.475-1.133-10.94-2.169-16.323c-0.529-2.685-1.137-5.364-2.007-7.921
		c-0.443-1.264-0.949-2.54-1.661-3.553c-0.344-0.497-0.813-0.889-1.1-0.877c-0.27-0.042-0.727,0.309-1.074,0.806
		c-0.699,1.016-1.264,2.271-1.328,3.451c-0.084,1.194,0.429,2.315,1.334,3.165c0.898,0.857,2.078,1.479,3.309,1.952
		c1.236,0.477,2.544,0.81,3.868,1.066c5.326,0.974,10.869,0.849,16.279,0.191c2.708-0.345,5.398-0.852,8.026-1.565
		c2.621-0.721,5.202-1.636,7.549-2.936c1.166-0.655,2.274-1.41,3.197-2.323c0.919-0.908,1.644-1.998,1.881-3.194
		c0.059-0.294,0.09-0.612,0.093-0.886c-0.003-0.35-0.029-0.632-0.068-0.97c-0.078-0.634-0.226-1.263-0.5-1.718
		c-0.281-0.456-0.622-0.636-1.152-0.6c-0.525,0.038-1.123,0.29-1.683,0.596c-2.261,1.31-4.252,3.275-6.186,5.188
		c-1.928,1.947-3.781,3.981-5.617,6.033c-3.668,4.109-7.253,8.306-10.954,12.412c-1.851,2.053-3.73,4.085-5.68,6.057
		c-0.975,0.985-1.969,1.955-2.993,2.897c-0.521,0.469-1.008,0.938-1.608,1.393c-0.59,0.44-1.23,0.813-1.903,1.101
		c-2.718,1.166-5.705,1.112-8.466,0.647c-2.785-0.483-5.452-1.397-8.011-2.505c-5.116-2.24-9.844-5.235-14.247-8.615
		c-4.387-3.401-8.485-7.205-11.981-11.553c-1.732-2.181-3.328-4.501-4.502-7.076c-0.581-1.287-1.048-2.647-1.258-4.083
		c-0.202-1.425-0.117-2.978,0.557-4.346c0.658-1.371,1.871-2.406,3.154-3.055c1.276-0.67,2.831-1.067,4.34-0.725
		c1.509,0.325,2.754,1.301,3.671,2.409c0.93,1.118,1.609,2.387,2.159,3.688c1.089,2.612,1.682,5.371,2.032,8.138
		c0.342,2.771,0.417,5.568,0.251,8.351c-0.172,2.782-0.58,5.557-1.326,8.257c-0.752,2.689-1.828,5.34-3.542,7.624
		c-0.859,1.132-1.892,2.162-3.113,2.94c-1.216,0.783-2.622,1.287-4.062,1.448c-2.899,0.338-5.751-0.66-8.199-1.902
		c-1.253-0.617-2.479-1.304-3.633-2.12c-1.146-0.818-2.246-1.761-3.073-2.977c-0.409-0.606-0.74-1.291-0.901-2.037
		c-0.159-0.744-0.128-1.548,0.127-2.277c0.517-1.464,1.73-2.566,3.179-3.039c0.368-0.114,0.759-0.184,1.176-0.161
		c0.409,0.022,0.88,0.161,1.225,0.515c0.346,0.355,0.467,0.839,0.47,1.245c0.006,0.415-0.074,0.795-0.183,1.153
		c-0.462,1.422-1.279,2.587-2.113,3.713c-1.708,2.226-3.674,4.197-5.694,6.093c-2.041,1.881-4.099,3.706-6.234,5.482
		c-0.538,0.44-1.079,0.875-1.65,1.29c-0.288,0.206-0.578,0.409-0.907,0.594c-0.172,0.09-0.333,0.184-0.606,0.243
		c-0.11,0.026-0.469,0.046-0.662-0.276c-0.129-0.274-0.071-0.4-0.063-0.529c0.219-0.835,0.589-1.37,0.927-2
		c0.349-0.605,0.712-1.195,1.079-1.782c2.955-4.672,5.98-9.273,8.643-14.089c1.333-2.404,2.586-4.853,3.668-7.371
		c1.071-2.517,2-5.113,2.452-7.788c0.22-1.333,0.312-2.691,0.144-4.011c-0.164-1.314-0.617-2.594-1.436-3.605
		c-0.847-1.02-1.859-1.976-3.058-2.413c-1.201-0.466-2.529-0.12-3.575,0.671c-1.062,0.778-1.929,1.844-2.71,2.951
		c-0.778,1.116-1.469,2.301-2.123,3.506c-1.304,2.415-2.462,4.917-3.645,7.41c-1.186,2.491-2.37,4.994-3.783,7.387
		c-0.712,1.192-1.479,2.362-2.413,3.417c-0.926,1.028-2.072,2.044-3.573,2.272c-0.708,0.097-1.518,0.037-2.163-0.423
		c-0.644-0.461-0.961-1.207-1.099-1.906c-0.265-1.429-0.051-2.842,0.231-4.203c0.613-2.725,1.676-5.311,2.961-7.768
		c0.65-1.226,1.368-2.417,2.182-3.545c0.822-1.118,1.719-2.208,2.871-3.043c0.576-0.399,1.249-0.763,2.019-0.743
		c0.789,0.012,1.434,0.583,1.789,1.193c0.699,1.215,1.125,2.676,0.78,4.095c-0.337,1.425-1.43,2.504-2.599,3.241
		c-1.188,0.749-2.5,1.249-3.828,1.645c-2.667,0.778-5.422,1.146-8.172,1.392c-5.513,0.476-11.04,0.27-16.553,0.303l-16.552-0.028
		L0,31.125z"/>
</g>
</svg>
