<?xml version="1.0" encoding="utf-8"?>
<!-- Generator: Adobe Illustrator 15.0.2, SVG Export Plug-In . SVG Version: 6.00 Build 0)  -->
<!DOCTYPE svg PUBLIC "-//W3C//DTD SVG 1.0//EN" "http://www.w3.org/TR/2001/REC-SVG-20010904/DTD/svg10.dtd">
<svg version="1.0" id="Layer_1" xmlns="http://www.w3.org/2000/svg" xmlns:xlink="http://www.w3.org/1999/xlink" x="0px" y="0px"
	 width="40px" height="40px" viewBox="-19.86 821.445 40 40" enable-background="new -19.86 821.445 40 40" xml:space="preserve">
<g>
	<g>
		<g>
			<path fill="#00A88F" d="M0.14,841.445l-10,17.253c-6.371-3.664-10-9.924-10-17.253H0.14z"/>
			<path fill="#007B38" d="M0.14,841.445l10,17.253c-6.371,3.663-13.629,3.663-20,0L0.14,841.445z"/>
			<path fill="#DF0000" d="M0.14,841.445h20c0,7.329-3.629,13.589-10,17.253L0.14,841.445z"/>
			<path fill="#E20177" d="M0.14,841.445l10-17.252c6.371,3.664,10,9.924,10,17.252H0.14L0.14,841.445z"/>
			<path fill="#0089EE" d="M0.14,841.445l-10-17.252c6.371-3.664,13.629-3.664,20,0L0.14,841.445z"/>
			<path fill="#00AEEF" d="M0.14,841.445h-20c0-7.328,3.629-13.588,10-17.252L0.14,841.445z"/>
		</g>
		<path fill="#FC02B6" d="M0.14,841.445l4.527-7.81c2.883,1.659,4.526,4.493,4.526,7.81H0.14z"/>
		<path fill="#00C8FE" d="M0.14,841.445l-4.527-7.81c2.884-1.658,6.169-1.658,9.054,0L0.14,841.445z"/>
		<path fill="#00E5FE" d="M0.14,841.445h-9.053c0-3.316,1.643-6.15,4.526-7.81L0.14,841.445z"/>
		<path fill="#00E1CE" d="M0.14,841.445l-4.527,7.811c-2.883-1.659-4.526-4.493-4.526-7.811H0.14z"/>
		<path fill="#00BB64" d="M0.14,841.445l4.527,7.811c-2.884,1.657-6.169,1.657-9.054,0L0.14,841.445z"/>
		<path fill="#FB0000" d="M0.14,841.445h9.053c0,3.317-1.643,6.151-4.526,7.811L0.14,841.445z"/>
	</g>
</g>
</svg>
