<?xml version="1.0" encoding="utf-8"?>
<!-- Generator: Adobe Illustrator 15.0.2, SVG Export Plug-In  -->
<!DOCTYPE svg PUBLIC "-//W3C//DTD SVG 1.1//EN" "http://www.w3.org/Graphics/SVG/1.1/DTD/svg11.dtd" [
	<!ENTITY ns_flows "http://ns.adobe.com/Flows/1.0/">
]>
<svg version="1.1"
	 xmlns="http://www.w3.org/2000/svg" xmlns:xlink="http://www.w3.org/1999/xlink" xmlns:a="http://ns.adobe.com/AdobeSVGViewerExtensions/3.0/"
	 x="0px" y="0px" width="597px" height="597px" viewBox="-1 122.305 597 597" style="enable-background:new -1 122.305 597 597;"
	 xml:space="preserve">
<defs>
</defs>
<path style="fill:#00A88F;" d="M297.64,297.641L148.821,554.387C54.011,499.864,0,406.691,0,297.641H297.64z"/>
<path style="fill:#007B38;" d="M297.64,297.641l148.82,256.746c-94.812,54.523-202.83,54.523-297.639,0L297.64,297.641z"/>
<path style="fill:#DF0000;" d="M297.64,297.641h297.64c0,109.05-54.014,202.223-148.819,256.746L297.64,297.641z"/>
<path style="fill:#E20177;" d="M297.64,297.641L446.46,40.893c94.806,54.521,148.819,147.703,148.819,256.749H297.64L297.64,297.641
	z"/>
<path style="fill:#0089EE;" d="M297.64,297.641L148.821,40.893c94.811-54.523,202.826-54.523,297.639,0L297.64,297.641z"/>
<path style="fill:#00AEEF;" d="M297.64,297.641H0C0,188.595,54.011,95.414,148.821,40.893L297.64,297.641z"/>
<path style="fill:#FC02B6;" d="M297.64,297.641l67.365-116.222c42.918,24.68,67.364,66.859,67.364,116.222H297.64z"/>
<path style="fill:#00C8FE;" d="M297.64,297.641l-67.369-116.222c42.921-24.687,91.817-24.687,134.734,0L297.64,297.641z"/>
<path style="fill:#00E5FE;" d="M297.64,297.641H162.91c0-49.363,24.448-91.542,67.36-116.222L297.64,297.641z"/>
<path style="fill:#00E1CE;" d="M297.64,297.641l-67.369,116.222c-42.912-24.676-67.36-66.859-67.36-116.222H297.64z"/>
<path style="fill:#00BB64;" d="M297.64,297.641l67.365,116.222c-42.917,24.682-91.813,24.682-134.734,0L297.64,297.641z"/>
<path style="fill:#FB0000;" d="M297.64,297.641h134.729c0,49.362-24.446,91.546-67.364,116.222L297.64,297.641z"/>
</svg>
